<svg width="16" height="16" viewBox="0 0 16 16" fill="none" xmlns="http://www.w3.org/2000/svg">
<g clip-path="url(#clip0_4_166)">
<path d="M4.75 2.5V1C4.75 0.801088 4.82902 0.610322 4.96967 0.46967C5.11032 0.329018 5.30109 0.25 5.5 0.25C5.69892 0.25 5.88968 0.329018 6.03033 0.46967C6.17099 0.610322 6.25 0.801088 6.25 1V2.5C6.25 2.69891 6.17099 2.88968 6.03033 3.03033C5.88968 3.17098 5.69892 3.25 5.5 3.25C5.30109 3.25 5.11032 3.17098 4.96967 3.03033C4.82902 2.88968 4.75 2.69891 4.75 2.5ZM8 3.25C8.19892 3.25 8.38968 3.17098 8.53033 3.03033C8.67099 2.88968 8.75 2.69891 8.75 2.5V1C8.75 0.801088 8.67099 0.610322 8.53033 0.46967C8.38968 0.329018 8.19892 0.25 8 0.25C7.80109 0.25 7.61032 0.329018 7.46967 0.46967C7.32902 0.610322 7.25 0.801088 7.25 1V2.5C7.25 2.69891 7.32902 2.88968 7.46967 3.03033C7.61032 3.17098 7.80109 3.25 8 3.25ZM10.5 3.25C10.6989 3.25 10.8897 3.17098 11.0303 3.03033C11.171 2.88968 11.25 2.69891 11.25 2.5V1C11.25 0.801088 11.171 0.610322 11.0303 0.46967C10.8897 0.329018 10.6989 0.25 10.5 0.25C10.3011 0.25 10.1103 0.329018 9.96967 0.46967C9.82902 0.610322 9.75 0.801088 9.75 1V2.5C9.75 2.69891 9.82902 2.88968 9.96967 3.03033C10.1103 3.17098 10.3011 3.25 10.5 3.25ZM15.7 6.6L14 7.875V11.5C14 12.0967 13.7629 12.669 13.341 13.091C12.919 13.5129 12.3467 13.75 11.75 13.75H4.25C3.65327 13.75 3.08097 13.5129 2.65901 13.091C2.23706 12.669 2 12.0967 2 11.5V7.875L0.300003 6.6C0.140873 6.48065 0.0356714 6.30298 0.00754094 6.10607C-0.0205895 5.90915 0.0306556 5.70913 0.150003 5.55C0.26935 5.39087 0.447024 5.28567 0.643937 5.25754C0.84085 5.22941 1.04087 5.28065 1.2 5.4L2 6V5.5C2 5.16848 2.1317 4.85054 2.36612 4.61612C2.60054 4.3817 2.91848 4.25 3.25 4.25H12.75C13.0815 4.25 13.3995 4.3817 13.6339 4.61612C13.8683 4.85054 14 5.16848 14 5.5V6L14.8 5.4C14.9591 5.28065 15.1592 5.22941 15.3561 5.25754C15.553 5.28567 15.7307 5.39087 15.85 5.55C15.9694 5.70913 16.0206 5.90915 15.9925 6.10607C15.9643 6.30298 15.8591 6.48065 15.7 6.6ZM12.5 5.75H3.5V11.5C3.5 11.6989 3.57902 11.8897 3.71967 12.0303C3.86033 12.171 4.05109 12.25 4.25 12.25H11.75C11.9489 12.25 12.1397 12.171 12.2803 12.0303C12.421 11.8897 12.5 11.6989 12.5 11.5V5.75Z" fill="#E9B567"/>
</g>
<defs>
<clipPath id="clip0_4_166">
<rect width="16" height="16" fill="white"/>
</clipPath>
</defs>
</svg>
